<svg width="826" height="445" viewBox="0 0 826 445" fill="none" xmlns="http://www.w3.org/2000/svg">
<g clip-path="url(#clip0_55_5206)">
<path d="M560.27 246.32V273.144C573.459 268.177 584.047 258.911 592.938 246.32H560.27ZM699.123 269.694C682.608 254.111 659.053 246.32 628.444 246.32H596.04C586.788 260.803 574.823 273.937 560.27 282.633V445H628.444C644.959 445 659.234 442.691 671.297 438.044C683.36 433.41 693.28 426.69 701.071 417.869C708.863 409.062 714.609 398.21 718.324 385.313C722.038 372.429 723.889 357.625 723.889 340.929C723.889 309.026 715.638 285.277 699.123 269.694ZM693.697 375.852C691.193 384.478 687.993 391.671 684.097 397.417C680.201 403.177 675.791 407.713 670.88 411.052C665.968 414.391 661.001 416.951 655.992 418.704C650.984 420.471 646.253 421.584 641.801 422.043C637.349 422.516 633.634 422.739 630.67 422.739H586.705V268.581H631.227C643.471 268.581 653.766 270.306 662.114 273.729C670.462 277.165 677.28 282.174 682.567 288.755C687.854 295.35 691.652 303.322 693.975 312.686C696.299 322.063 697.454 332.679 697.454 344.547C697.454 356.415 696.202 367.225 693.697 375.852Z" fill="black"/>
<path d="M560.269 423.643L509.055 292.567C498.161 290.981 488.547 287.377 480.477 282.132L509.347 362.912H442.007L473.326 276.706C466.8 270.974 461.638 263.934 458.035 255.892L393.074 422.739L384.406 445H411.398L433.659 385.173H517.695L539.399 445H568.617L560.269 423.643ZM490.981 246.32H477.193C482.522 255.029 490.133 262.348 499.329 267.69L490.981 246.32Z" fill="black"/>
<path d="M292.039 354.008V422.739H393.076L384.408 445H265.604V246.32H308.609L308.206 250.897C307.552 255.461 307.246 262.25 307.134 268.581H292.039V331.747H395.275V354.008H292.039Z" fill="black"/>
<path d="M402.788 246.32V268.581H355.637C354.871 267.676 353.397 267.37 352.534 268.581H329.869C329.702 266.132 329.633 263.391 329.633 260.358C329.633 257.116 329.828 252.163 330.092 246.32H402.788Z" fill="black"/>
<path d="M257.045 293.151C255.306 293.541 253.623 293.75 251.995 293.75C229.734 293.75 217.49 279.558 217.49 262.584C217.49 260.094 217.81 257.603 218.506 255.113C205.038 249.255 188.912 246.32 170.143 246.32H101.969V445H170.143C186.658 445 200.947 442.691 213.01 438.044C225.059 433.41 234.993 426.69 242.77 417.869C250.576 409.062 256.322 398.21 260.037 385.313C263.738 372.429 265.602 357.625 265.602 340.929C265.602 322.188 262.75 306.258 257.045 293.151ZM235.396 375.852C232.906 384.478 229.706 391.671 225.796 397.417C221.901 403.177 217.504 407.713 212.579 411.052C207.667 414.391 202.7 416.951 197.706 418.704C192.683 420.471 187.966 421.584 183.514 422.043C179.048 422.516 175.347 422.739 172.383 422.739H128.404V268.581H172.926C185.184 268.581 195.465 270.306 203.813 273.729C212.161 277.165 218.993 282.174 224.266 288.755C229.553 295.35 233.365 303.322 235.689 312.686C237.998 322.063 239.167 332.679 239.167 344.547C239.167 356.415 237.901 367.225 235.396 375.852Z" fill="black"/>
<path d="M529.426 148.774C569.302 148.774 579.013 172.969 577.886 185.88C577.872 186.033 577.858 186.186 577.844 186.339C577.01 191.07 574.784 194.966 566.157 194.966H470.991C470.434 197.762 469.961 200.573 469.6 203.411C469.057 207.613 468.765 211.898 468.765 216.392C468.765 227.356 471.812 237.54 477.196 246.319C482.525 255.029 490.136 262.347 499.332 267.69C509.864 273.812 522.47 277.332 536.105 277.332C545.037 277.332 553.037 275.885 560.272 273.144C573.462 268.177 584.05 258.911 592.94 246.319C597.726 239.571 602.012 231.864 605.949 223.349C606.575 221.86 607.299 221.192 607.8 221.192C608.412 221.192 608.662 222.208 607.897 223.905C604.641 231.46 600.69 239.057 596.043 246.319C586.791 260.803 574.825 273.937 560.272 282.633C549.016 289.381 536.202 293.471 521.913 293.471C517.447 293.471 513.162 293.165 509.058 292.567C498.163 290.981 488.549 287.377 480.48 282.132C477.934 280.476 475.555 278.668 473.328 276.706C466.803 270.974 461.641 263.933 458.038 255.892C454.142 247.21 452.069 237.345 452.069 226.688C452.069 213.582 455.881 201.018 462.309 189.957C467.596 180.872 474.65 172.802 482.789 166.263C486.588 163.202 490.623 160.489 494.838 158.165C495.27 159.028 495.701 159.863 496.146 160.697C491.096 163.341 486.615 166.889 482.789 171.341C477.906 177.004 474.108 184.127 471.548 192.74C475.485 192.74 479.228 192.726 482.789 192.698C499.332 192.545 512.146 192.127 523.513 191.863C529.287 191.724 534.672 191.627 540 191.627C544.174 191.627 550.296 189.957 551.131 189.122C552.564 187.439 553.385 185.143 553.58 181.873C553.622 181.345 553.635 180.802 553.635 180.218C553.635 169.978 543.187 155.077 522.011 154.91C520.981 153.198 520.007 151.431 519.103 149.623C522.525 149.066 525.976 148.774 529.426 148.774ZM529.426 145.991C525.892 145.991 522.275 146.283 518.658 146.882L514.929 147.494L516.626 150.875C517.558 152.725 518.56 154.562 519.645 156.357L520.452 157.692H522.011C534.115 157.804 550.881 165.678 550.881 180.232C550.881 180.802 550.867 181.261 550.839 181.665C550.7 184.099 550.199 185.811 549.267 187.035C547.973 187.633 543.354 188.844 540.028 188.844C535.326 188.844 530.373 188.913 523.472 189.08C520.703 189.15 517.851 189.22 514.873 189.289C505.691 189.526 495.283 189.79 482.789 189.915C480.41 189.929 477.962 189.943 475.415 189.957C477.767 183.404 480.953 177.769 484.932 173.164C488.494 169.018 492.709 165.664 497.468 163.174L499.958 161.866L498.637 159.39C498.205 158.583 497.788 157.762 497.356 156.927L496.063 154.339L493.53 155.744C489.189 158.137 485.002 160.948 481.078 164.106C472.591 170.924 465.287 179.383 459.944 188.566C453.001 200.517 449.328 213.707 449.328 226.702C449.328 237.651 451.415 247.864 455.547 257.046C459.332 265.492 464.716 272.81 471.534 278.807C473.495 280.532 475.582 282.16 477.739 283.621L479.005 284.469C487.603 290.049 497.593 293.708 508.696 295.322C512.939 295.948 517.405 296.254 521.955 296.254C535.924 296.254 549.308 292.469 561.747 285.026C575.604 276.748 587.959 264.226 598.436 247.822C602.972 240.726 607.034 233.046 610.499 225.004C611.653 222.472 611.194 220.844 610.61 219.926C609.998 218.98 608.968 218.409 607.841 218.409C606.798 218.409 604.85 218.91 603.445 222.222C599.382 231.001 595.222 238.347 590.714 244.705C581.643 257.547 571.375 266.007 559.34 270.542C552.314 273.2 544.522 274.549 536.147 274.549C523.43 274.549 511.2 271.349 500.765 265.283C491.972 260.177 484.654 253.109 479.603 244.872C474.358 236.316 471.575 226.465 471.575 216.392C471.575 212.121 471.84 208.002 472.382 203.773C472.633 201.811 472.939 199.821 473.314 197.748H566.185C577.385 197.748 579.778 191.515 580.613 186.826V186.715L580.641 186.59L580.683 186.145C581.434 177.505 578.011 168.127 571.514 161.045C565.225 154.172 552.815 145.991 529.454 145.991H529.426Z" fill="black"/>
<path d="M393.634 268.581V288.184H410.608C412.835 288.184 412.835 290.689 410.608 290.689C408.382 290.689 390.295 290.132 385.843 290.132C381.391 290.132 365.53 290.689 357.46 290.689C355.234 290.689 355.234 288.184 357.46 288.184C368.869 288.184 372.152 286.96 372.876 268.581H393.634ZM396.417 265.798H370.205L370.093 268.469C369.425 285.402 367.13 285.402 357.46 285.402C354.566 285.402 353.008 287.475 353.008 289.437C353.008 291.398 354.566 293.471 357.46 293.471C362.121 293.471 369.231 293.291 375.492 293.138C380.041 293.026 383.979 292.915 385.843 292.915C388.417 292.915 395.777 293.11 401.704 293.263C406.142 293.374 409.648 293.471 410.608 293.471C413.502 293.471 415.061 291.398 415.061 289.437C415.061 287.475 413.502 285.402 410.608 285.402H396.417V265.798Z" fill="black"/>
<path d="M427.302 148.774C433.98 148.774 439.824 150.165 439.824 153.783C439.824 158.235 435.65 168.252 425.911 168.252H415.615C398.515 168.252 394.592 170.478 393.813 185.853C393.674 188.482 393.632 191.501 393.632 194.966V246.319H373.04V185.783C373.04 184.573 372.901 183.376 372.623 182.207C371.12 175.571 365.68 169.602 360.24 164.635C359.405 163.8 359.405 163.244 360.24 162.965C365.527 161.017 374.71 156.009 379.44 151.278C379.552 151.167 379.719 151.097 379.927 151.097C380.22 151.097 380.623 151.236 381.11 151.556C385.84 156.009 391.962 166.304 393.075 177.157C396.414 164.913 403.928 158.791 411.441 153.504C416.171 150.443 421.458 148.774 427.302 148.774ZM427.302 145.991C421.083 145.991 415.239 147.73 409.924 151.167L409.883 151.195L409.841 151.223C403.942 155.383 397.973 160.085 393.841 167.71C391.308 160.057 386.995 153.268 383.016 149.525L382.849 149.372L382.654 149.247C381.736 148.635 380.818 148.315 379.927 148.315C378.981 148.315 378.119 148.663 377.465 149.316C372.985 153.797 364.052 158.597 359.294 160.35C357.527 160.962 357.04 162.297 356.901 162.84C356.692 163.731 356.748 165.108 358.251 166.611L358.292 166.652L358.334 166.694C362.605 170.59 368.449 176.503 369.882 182.819C370.119 183.793 370.23 184.781 370.23 185.783V249.102H396.387V194.966C396.387 191.07 396.442 188.315 396.568 186.006C397.235 172.718 399.378 171.035 415.587 171.035H425.883C436.999 171.035 442.579 159.974 442.579 153.783C442.579 150.875 440.589 145.991 427.274 145.991H427.302Z" fill="black"/>
<path d="M297.687 149.971C302.515 150.917 306.967 152.475 310.946 154.701C320.282 159.891 327.03 168.726 330.063 181.999C331.232 187.119 331.858 192.921 331.858 199.418C331.858 212.622 330.745 232.128 330.091 246.319C329.827 252.163 329.632 257.116 329.632 260.358C329.632 263.391 329.701 266.132 329.868 268.581C330.522 278.918 332.693 284.01 337.423 284.01C342.154 284.01 349.667 274.549 352.449 268.706L352.533 268.581C352.936 268.024 353.465 267.788 353.994 267.788C354.606 267.788 355.218 268.094 355.636 268.581C356.15 269.179 356.331 270.055 355.789 270.932C351.615 277.332 333.806 293.471 322.953 293.471C312.101 293.471 307.092 286.236 307.092 273.715C307.092 272.073 307.106 270.348 307.134 268.581C307.245 262.25 307.552 255.46 308.205 250.897L308.609 246.319L308.762 244.497C309.04 240.879 310.432 227.523 310.432 204.427V198.583L287.614 208.323C246.709 225.297 236.97 233.923 236.97 254.514C236.97 269.429 252.316 281.325 265.603 281.506V290.049C262.668 291.468 259.801 292.539 257.047 293.151C255.307 293.541 253.624 293.75 251.996 293.75C229.735 293.75 217.491 279.558 217.491 262.584C217.491 260.094 217.811 257.603 218.507 255.113C222.918 239.001 242.466 222.904 287.057 205.54L310.153 196.635C309.193 172.468 304.992 159.988 295.711 154.631C296.407 153.101 297.061 151.557 297.687 149.971ZM295.962 146.798L295.113 148.955C294.501 150.513 293.861 152.002 293.193 153.491L292.15 155.786L294.334 157.052C302.32 161.672 306.244 172.997 307.301 194.771L286.07 202.952C243.189 219.648 220.872 235.996 215.836 254.389C215.098 257.033 214.723 259.801 214.723 262.598C214.723 271.934 218.187 280.449 224.476 286.543C231.224 293.082 240.74 296.546 252.01 296.546C253.791 296.546 255.697 296.324 257.673 295.878C260.497 295.252 263.586 294.139 266.828 292.567L268.4 291.802V278.765L265.659 278.723C253.93 278.57 239.766 267.732 239.766 254.514C239.766 235.342 248.448 227.592 288.699 210.896L307.663 202.799V204.427C307.663 224.81 306.592 237.332 306.132 242.674C306.077 243.328 306.035 243.871 305.993 244.274L305.84 246.083L305.451 250.577C304.727 255.725 304.463 263.168 304.365 268.525C304.338 270.306 304.324 272.045 304.324 273.701C304.324 282.118 306.745 296.24 322.967 296.24C334.988 296.24 353.521 279.502 358.14 272.435C359.309 270.556 359.142 268.344 357.764 266.744C356.832 265.645 355.427 264.977 354.022 264.977C352.547 264.977 351.183 265.687 350.293 266.939L350.265 266.981L350.237 267.022L350.154 267.148L350.042 267.315L349.959 267.495C346.968 273.784 340.178 281.214 337.451 281.214C336.463 281.214 333.486 281.214 332.679 268.386C332.526 266.104 332.442 263.474 332.442 260.344C332.442 256.991 332.665 251.676 332.901 246.431C333.027 243.606 333.18 240.573 333.333 237.429C333.959 224.601 334.668 210.048 334.668 199.404C334.668 192.851 334.042 186.785 332.804 181.359C329.729 167.891 322.828 158.096 312.324 152.252C308.178 149.929 303.447 148.245 298.244 147.23L295.976 146.784L295.962 146.798Z" fill="black"/>
<path d="M269.166 150.805C268.623 151.821 268.081 152.823 267.51 153.811C257.521 158.193 252.345 167.432 248.477 174.861C247.03 177.672 245.75 180.232 244.484 182.166C241.98 185.783 239.475 187.174 231.962 187.174C228.108 187.174 224.992 186.437 223.058 184.99C221.625 183.961 220.831 182.541 220.831 180.774C220.831 177.435 223.614 172.148 230.571 167.696C238.64 162.312 253.806 154.464 269.166 150.805ZM274.536 146.673L268.526 148.106C252.915 151.821 237.499 159.738 229.026 165.386C220.943 170.562 218.049 176.74 218.049 180.774C218.049 183.376 219.245 185.686 221.43 187.244C223.781 188.997 227.44 189.957 231.962 189.957C239.92 189.957 243.524 188.454 246.766 183.752V183.724L246.807 183.696C248.018 181.86 249.201 179.536 250.467 177.073L250.94 176.141C255.044 168.266 259.788 160.238 268.623 156.371L269.458 156.009L269.917 155.216C270.529 154.158 271.1 153.115 271.615 152.127L274.523 146.673H274.536Z" fill="black"/>
<path d="M820.45 124.384C816.832 117.887 812.004 112.516 805.98 108.245C799.956 103.973 793.138 100.592 785.528 98.0881C777.917 95.5837 770.181 93.3994 762.293 91.5489C754.404 89.6985 746.668 87.9732 739.058 86.401C731.447 84.8288 724.63 82.8253 718.605 80.4183C712.581 78.0114 707.753 74.8948 704.135 71.0965C700.518 67.2982 698.709 62.3312 698.709 56.2094C698.709 49.7119 699.961 44.2857 702.466 39.9309C704.97 35.5761 708.309 32.0978 712.483 29.496C716.657 26.8942 721.43 25.0438 726.814 23.9307C732.198 22.8177 737.666 22.2611 743.231 22.2611C756.964 22.2611 768.234 25.4612 777.041 31.8612C785.848 38.2613 790.996 48.5988 792.484 62.8877H817.528C817.152 51.938 815.065 42.5327 811.267 34.6439C807.469 26.7551 802.265 20.2159 795.684 15.0263C789.103 9.83664 781.451 6.02442 772.728 3.61743C764.004 1.21045 754.543 0 744.345 0C735.259 0 726.397 1.1548 717.77 3.4783C709.144 5.80181 701.45 9.32185 694.674 14.0523C687.899 18.7828 682.473 24.8072 678.396 32.1395C674.319 39.4718 672.274 48.1397 672.274 58.1572C672.274 67.2425 674.083 74.8113 677.7 80.8357C681.318 86.8601 686.146 91.7854 692.17 95.5837C698.194 99.382 705.012 102.443 712.622 104.766C720.233 107.09 727.969 109.121 735.858 110.888C743.746 112.655 751.482 114.367 759.093 116.036C766.703 117.706 773.521 119.89 779.545 122.575C785.569 125.261 790.397 128.739 794.015 133.01C797.632 137.282 799.441 142.847 799.441 149.706C799.441 156.941 797.952 162.882 794.989 167.515C792.025 172.148 788.129 175.821 783.302 178.506C778.474 181.192 773.047 183.098 767.023 184.211C760.999 185.324 755.016 185.88 749.075 185.88C741.659 185.88 734.424 184.948 727.37 183.098C720.316 181.247 714.153 178.367 708.866 174.472C703.579 170.576 699.308 165.609 696.066 159.584C692.824 153.56 691.196 146.367 691.196 138.019H666.152C666.152 140.496 666.25 142.903 666.431 145.24C667.14 154.297 669.227 162.325 672.692 169.324C677.046 178.131 682.987 185.366 690.5 191.028C698.014 196.691 706.737 200.907 716.657 203.689C726.577 206.472 737.11 207.863 748.24 207.863C757.326 207.863 766.467 206.792 775.649 204.663C784.832 202.535 793.138 199.098 800.554 194.367C807.97 189.637 814.05 183.515 818.78 176.002C823.511 168.489 825.876 159.445 825.876 148.871C825.876 139.035 824.067 130.882 820.45 124.384Z" fill="black"/>
<path d="M668.638 138.019H666.147C666.147 140.496 666.245 142.903 666.426 145.24C662.46 156.913 656.7 167.306 649.173 176.419C641.201 186.061 631.267 193.714 619.399 199.376C607.531 205.025 593.701 207.863 577.938 207.863C562.174 207.863 548.344 205.025 536.476 199.376C533.638 198.027 530.911 196.552 528.295 194.966H566.153C574.779 194.966 577.005 191.07 577.84 186.34C577.84 186.187 577.868 186.034 577.882 185.88H577.938C590 185.88 600.38 183.515 609.103 178.785C617.827 174.054 624.964 167.793 630.53 160.002C636.095 152.21 640.171 143.445 642.773 133.706C645.375 123.967 646.669 114.088 646.669 104.071C646.669 94.0533 645.375 84.1749 642.773 74.4357C640.171 64.6964 636.095 55.9311 630.53 48.1397C624.964 40.3483 617.827 34.0874 609.103 29.3569C600.38 24.6264 590 22.2611 577.938 22.2611C565.875 22.2611 555.496 24.6264 546.772 29.3569C538.048 34.0874 530.911 40.3483 525.346 48.1397C519.78 55.9311 515.704 64.6964 513.102 74.4357C510.5 84.1749 509.206 94.0533 509.206 104.071C509.206 114.088 510.5 123.967 513.102 133.706C514.605 139.341 516.608 144.642 519.099 149.623C520.003 151.431 520.977 153.198 522.006 154.91C523.05 156.649 524.163 158.346 525.346 160.002C530.911 167.793 538.048 174.054 546.772 178.785C548.942 179.953 551.21 180.983 553.576 181.873C553.381 185.143 552.56 187.439 551.127 189.122C550.292 189.957 544.17 191.627 539.996 191.627C534.667 191.627 529.283 191.724 523.509 191.863C517.179 187.453 511.572 182.305 506.702 176.419C502.667 171.55 499.147 166.305 496.142 160.698C495.697 159.863 495.265 159.028 494.834 158.165C492.455 153.421 490.437 148.426 488.754 143.167C484.886 131.035 482.896 118.429 482.785 105.337V102.805C482.896 89.7124 484.886 77.107 488.754 64.9747C492.747 52.4528 498.73 41.364 506.702 31.7221C514.674 22.0803 524.608 14.3723 536.476 8.62619C548.344 2.88003 562.174 0 577.938 0C593.701 0 607.531 2.88003 619.399 8.62619C631.267 14.3723 641.201 22.0803 649.173 31.7221C657.145 41.364 663.128 52.4528 667.121 64.9747C671.114 77.4966 673.104 90.5332 673.104 104.071C673.104 115.758 671.615 127.083 668.638 138.019Z" fill="black"/>
<path d="M395.695 98.7838V121.045H459.139C459.501 130.13 458.304 138.617 455.521 146.506C452.739 154.395 448.607 161.254 443.139 167.098C437.657 172.941 430.937 177.533 422.965 180.872C414.978 184.211 405.796 185.88 395.416 185.88C394.874 185.88 394.345 185.88 393.816 185.853C393.677 188.482 393.636 191.501 393.636 194.966V207.849C394.22 207.863 394.818 207.863 395.416 207.863C407.104 207.863 418.693 205.582 430.199 201.046C441.692 196.496 451.348 189.039 459.139 178.646L462.311 189.957C467.598 180.872 474.652 172.802 482.791 166.263V98.7838H395.695ZM471.55 192.74C475.487 192.74 479.23 192.726 482.791 192.698V171.341C477.908 177.004 474.11 184.127 471.55 192.74ZM470.993 194.966C470.436 197.762 469.963 200.573 469.602 203.411H482.791V194.966H470.993ZM470.409 36.0352C465.302 27.7847 459 20.9672 451.487 15.5828C443.974 10.1984 435.431 6.26094 425.886 3.75657C416.328 1.25219 406.171 0 395.416 0C379.639 0 365.865 2.92177 354.094 8.76532C342.31 14.6089 332.473 22.442 324.598 32.2786C316.709 42.1153 310.769 53.5658 306.789 66.6443C305.565 70.6652 304.535 74.7417 303.673 78.8879C301.767 88.2515 300.807 97.9351 300.807 107.966C300.807 115.967 301.614 123.786 303.228 131.438C304.243 136.21 305.579 140.913 307.207 145.532C308.32 148.677 309.572 151.737 310.949 154.701C320.285 159.891 327.033 168.725 330.066 181.999C337.357 189.206 345.885 195.091 355.625 199.655C361.093 202.215 366.894 204.176 373.044 205.526V185.783C373.044 184.573 372.905 183.376 372.627 182.207C370.359 181.386 368.16 180.426 366.06 179.341C357.614 174.986 350.519 169.143 344.772 161.811C339.012 154.478 334.657 146.047 331.694 136.489C328.717 126.93 327.242 116.968 327.242 106.575C327.242 96.182 328.536 85.6636 331.137 75.5487C333.725 65.4338 337.76 56.4459 343.242 48.5571C348.71 40.6683 355.764 34.3239 364.39 29.496C373.016 24.6681 383.354 22.2611 395.416 22.2611C402.832 22.2611 409.831 23.1377 416.425 24.9046C423.006 26.6716 428.892 29.3151 434.095 32.8352C439.285 36.3552 443.64 40.8631 447.174 46.331C450.694 51.7989 453.101 58.3381 454.408 65.9486H480.844C478.979 54.2615 475.501 44.2857 470.409 36.0352Z" fill="black"/>
<path d="M303.67 78.8879C302.751 74.1852 301.555 69.5382 300.108 64.9747C296.115 52.4528 290.132 41.364 282.16 31.7221C274.174 22.0803 264.253 14.3723 252.386 8.62619C240.504 2.88003 226.688 0 210.924 0C195.16 0 181.331 2.88003 169.463 8.62619C157.581 14.3723 147.661 22.0803 139.689 31.7221C131.702 41.364 125.72 52.4528 121.74 64.9747C117.747 77.4966 115.758 90.5332 115.758 104.071C115.758 117.608 117.747 130.645 121.74 143.167C125.72 155.689 131.702 166.778 139.689 176.419C147.661 186.061 157.581 193.714 169.463 199.376C181.331 205.025 195.147 207.863 210.924 207.863C226.702 207.863 240.504 205.025 252.386 199.376C264.253 193.714 274.174 186.061 282.16 176.419C287.614 169.825 292.122 162.562 295.711 154.631C296.407 153.101 297.061 151.557 297.687 149.97C298.563 147.758 299.37 145.49 300.108 143.167C301.332 139.313 302.376 135.403 303.224 131.438C301.61 123.786 300.803 115.967 300.803 107.966C300.803 97.9351 301.763 88.2515 303.67 78.8879ZM275.76 133.706C274.132 139.786 271.934 145.49 269.165 150.805C268.622 151.821 268.08 152.823 267.509 153.811C266.271 155.939 264.949 157.998 263.516 160.002C259.37 165.804 254.361 170.743 248.476 174.861C247.029 177.672 245.749 180.232 244.483 182.166C241.978 185.783 239.474 187.174 231.961 187.174C228.107 187.174 224.99 186.437 223.056 184.99C219.216 185.588 215.182 185.88 210.924 185.88C198.861 185.88 188.468 183.515 179.759 178.785C171.035 174.054 163.898 167.793 158.332 160.002C152.767 152.21 148.676 143.445 146.089 133.706C143.487 123.967 142.193 114.088 142.193 104.071C142.193 94.0533 143.487 84.1749 146.089 74.4357C148.676 64.6964 152.767 55.9311 158.332 48.1397C163.898 40.3483 171.035 34.0874 179.759 29.3569C188.468 24.6264 198.861 22.2611 210.924 22.2611C222.987 22.2611 233.366 24.6264 242.09 29.3569C250.799 34.0874 257.951 40.3483 263.516 48.1397C269.081 55.9311 273.158 64.6964 275.76 74.4357C278.348 84.1749 279.655 94.0533 279.655 104.071C279.655 114.088 278.348 123.967 275.76 133.706Z" fill="black"/>
<path d="M26.4351 4.73047V181.15H131.619V203.411H0V4.73047H26.4351Z" fill="black"/>
</g>
<defs>
<clipPath id="clip0_55_5206">
<rect width="825.874" height="445" fill="white"/>
</clipPath>
</defs>
</svg>
