<svg width="148" height="64" viewBox="0 0 148 64" fill="none" xmlns="http://www.w3.org/2000/svg">
<path d="M26.0374 11.4L26.9334 14.816L26.7654 14.9C25.5054 13.472 23.7414 11.624 20.6334 11.624H20.0174V29.152C20.0174 30.132 20.2414 30.552 20.6614 30.804C20.6614 30.86 20.6614 31 20.6614 31H17.1894C17.1894 31 17.1894 30.86 17.1894 30.804C17.6094 30.552 17.8334 30.132 17.8334 29.152V11.624H17.2174C14.1094 11.624 12.3454 13.472 11.0854 14.9L10.9174 14.816L11.8134 11.4H26.0374ZM41.67 29.152C41.782 30.16 42.034 30.552 42.454 30.804C42.454 30.86 42.454 31 42.454 31H39.01C39.01 31 39.01 30.86 39.01 30.804C39.43 30.552 39.57 30.076 39.486 29.152C39.374 28.228 38.982 23.496 38.842 22.04C38.618 19.94 37.582 17.56 35.174 18.036C32.038 18.652 31.478 24.504 31.478 26.856V29.152C31.478 30.132 31.674 30.552 32.094 30.804C32.094 30.86 32.094 31 32.094 31H28.622C28.622 31 28.622 30.86 28.622 30.804C29.07 30.552 29.266 30.132 29.266 29.152V12.968C29.266 11.988 29.182 11.708 28.622 11.624C28.622 11.568 28.622 11.4 28.622 11.4L31.254 10.812H31.478V24.476C31.814 21.34 32.794 17.532 36.434 17.532C38.702 17.532 40.662 19.1 40.998 22.46C41.306 25.176 41.558 28.116 41.67 29.152ZM54.6604 21.956C56.2564 22.376 57.7124 24 57.4884 26.548C57.3204 28.536 55.5564 31.168 51.5804 31.168C47.7164 31.168 43.9924 29.264 43.8804 24.644C43.7404 19.8 48.1364 17.7 51.2164 17.532C53.5964 17.42 56.8724 18.568 57.2644 21.956C57.0124 21.956 55.2764 21.956 55.2764 21.956H54.6604ZM49.9564 17.868C48.0524 18.232 46.8204 19.828 46.3164 21.732H55.2484C54.8844 19.296 52.7004 17.336 49.9564 17.868ZM57.2364 26.604C57.5724 23.692 55.6404 21.956 53.5124 21.956H46.2604C45.8964 23.44 45.9804 25.092 46.4564 26.436C47.4924 29.376 49.5924 30.664 52.4484 30.552C54.8564 30.44 56.9564 28.788 57.2364 26.604ZM75.0188 20.556C78.3228 20.864 81.8788 22.32 81.8788 25.736C81.8788 29.684 77.2308 31 73.6188 31H65.9188C65.9188 31 65.9188 30.86 65.9188 30.804C66.3388 30.552 66.5348 30.132 66.5348 29.152V13.276C66.5348 12.296 66.3388 11.876 65.9188 11.624C65.9188 11.568 65.9188 11.4 65.9188 11.4H72.4148C76.0268 11.4 80.6748 12.128 80.6748 16.076C80.6748 19.072 77.9308 20.192 75.0188 20.556ZM68.7468 11.624V20.472H72.4148C77.0068 20.472 78.4628 18.54 78.4628 16.076C78.4628 13.584 77.0068 11.624 72.4148 11.624H68.7468ZM73.6188 30.804C78.2108 30.804 79.6948 28.228 79.6948 25.736C79.6948 23.272 78.2108 20.696 73.6188 20.696H68.7468V30.804H73.6188ZM90.717 17.532C92.229 17.532 93.097 18.064 94.049 19.184L92.341 21.592L92.145 21.48C92.089 19.884 91.305 17.812 89.793 18.036C87.049 18.456 86.685 25.68 86.685 28.06V29.152C86.685 30.132 86.881 30.552 87.301 30.804C87.301 30.86 87.301 31 87.301 31H83.829C83.829 31 83.829 30.86 83.829 30.804C84.277 30.552 84.473 30.132 84.473 29.152V19.688C84.473 18.708 84.389 18.428 83.829 18.344C83.829 18.288 83.829 18.148 83.829 18.148L86.461 17.532H86.685V25.036C86.965 21.648 87.749 17.532 90.717 17.532ZM105.696 30.804C105.696 30.86 105.696 31 105.696 31H102.868V27.08C102.14 29.544 100.6 31.168 97.9119 31.168C95.6159 31.168 93.3759 30.076 93.0119 28.06C92.5359 25.204 94.2439 23.524 96.3999 22.628C95.6719 21.004 96.5399 17.532 100.292 17.532C102.616 17.532 105.08 18.764 105.08 22.208V29.152C105.08 30.132 105.276 30.552 105.696 30.804ZM100.04 17.812C97.5199 17.812 95.8399 20.248 96.6799 22.516C98.1919 21.956 99.8719 21.76 101.188 21.76C101.832 21.76 102.392 21.872 102.868 22.012V21.816C102.868 19.688 102.028 17.812 100.04 17.812ZM98.5839 30.804C101.02 30.664 102.308 28.592 102.868 26.576V22.264C102.728 22.208 102.056 22.012 101.188 22.012C98.1359 22.012 93.9919 23.524 95.1959 28.452C95.5599 29.964 97.1839 30.888 98.5839 30.804ZM120.693 29.152C120.805 30.16 121.057 30.552 121.477 30.804C121.477 30.86 121.477 31 121.477 31H118.005C118.005 31 118.005 30.86 118.005 30.804C118.453 30.552 118.565 30.076 118.481 29.152C118.397 28.228 117.977 23.496 117.837 22.04C117.641 19.94 116.605 17.56 114.197 18.036C111.061 18.652 110.473 24.504 110.473 26.856V29.152C110.473 30.132 110.669 30.552 111.117 30.804C111.117 30.86 111.117 31 111.117 31H107.645C107.645 31 107.645 30.86 107.645 30.804C108.065 30.552 108.261 30.132 108.261 29.152V19.688C108.261 18.708 108.177 18.428 107.645 18.344C107.645 18.288 107.645 18.148 107.645 18.148L110.277 17.532H110.473V24.476C110.837 21.34 111.789 17.532 115.429 17.532C117.725 17.532 119.685 19.1 120.021 22.46C120.301 25.176 120.581 28.116 120.693 29.152ZM136.792 30.804C136.792 30.86 136.792 31 136.792 31H133.964V23.496C133.432 26.744 132.004 31.168 128.084 31.168C125.816 31.168 123.016 29.208 122.904 25.624C122.736 18.708 129.176 17.532 132.284 17.532C132.928 17.532 133.488 17.644 133.964 17.784V12.968C133.964 11.988 133.88 11.708 133.32 11.624C133.32 11.568 133.32 11.4 133.32 11.4L135.98 10.812H136.176V29.152C136.176 30.132 136.372 30.552 136.792 30.804ZM129.344 30.664C132.48 30.048 133.964 24.196 133.964 21.844V17.924C133.824 17.896 133.18 17.672 132.284 17.672C129.568 17.728 124.696 18.904 125.088 26.044C125.228 28.48 126.936 31.112 129.344 30.664ZM55.5223 33.4H59.2743C59.2743 33.4 59.2743 33.568 59.2743 33.624C58.3503 34.1 57.5103 35.556 57.5103 36.76V53H57.0903L43.7623 35.948V49.64C43.7623 50.844 44.6023 52.328 45.5543 52.804C45.5543 52.86 45.5543 53 45.5543 53H41.7743C41.7743 53 41.7743 52.86 41.7743 52.804C42.7263 52.328 43.5663 50.844 43.5663 49.64V35.696L41.7743 33.4H44.6023L57.2863 49.472V36.76C57.2863 35.556 56.4463 34.1 55.5223 33.624C55.5223 33.568 55.5223 33.4 55.5223 33.4ZM71.7776 43.956C73.3736 44.376 74.8296 46 74.6056 48.548C74.4376 50.536 72.6736 53.168 68.6976 53.168C64.8336 53.168 61.1096 51.264 60.9976 46.644C60.8576 41.8 65.2536 39.7 68.3336 39.532C70.7136 39.42 73.9896 40.568 74.3816 43.956C74.1296 43.956 72.3936 43.956 72.3936 43.956H71.7776ZM67.0736 39.868C65.1696 40.232 63.9376 41.828 63.4336 43.732H72.3656C72.0016 41.296 69.8176 39.336 67.0736 39.868ZM74.3536 48.604C74.6896 45.692 72.7576 43.956 70.6296 43.956H63.3776C63.0136 45.44 63.0976 47.092 63.5736 48.436C64.6096 51.376 66.7096 52.664 69.5656 52.552C71.9736 52.44 74.0736 50.788 74.3536 48.604ZM92.3392 39.532H95.6432V39.756C94.5232 40.82 93.7392 42.024 92.8432 44.152L90.3512 50.676L91.2472 53H89.0352C89.0352 53 85.5912 43.984 85.4512 43.62L83.1552 51.012L83.9952 53H81.7832L78.3112 44.824C77.1352 42.08 76.5472 40.876 75.1752 39.756V39.532H79.4872V39.756C78.7592 40.512 79.0112 41.268 79.6552 42.836L83.0152 50.732L85.3392 43.34C84.6392 41.604 84.1352 40.652 83.0432 39.756V39.532H87.3552V39.756C86.5152 40.624 86.8792 41.52 87.6352 43.564L90.2672 50.396L92.3392 44.908C93.3472 42.304 93.5992 40.764 92.3392 39.756V39.532ZM101.325 39.532C102.781 39.532 104.685 40.456 105.805 41.324L105.245 43.9H105.105C104.237 41.52 102.445 39.784 100.849 39.784C98.9455 39.784 97.8815 40.848 97.7415 41.996C97.3495 45.748 106.785 44.74 106.477 49.304C106.309 51.516 104.237 53.168 101.101 53.168C98.8335 53.168 97.1535 52.412 95.6415 51.292L96.2295 48.492H96.3695C97.3215 50.452 99.4215 52.776 101.913 52.776C103.929 52.776 105.441 51.74 105.609 50.536C106.141 46.868 96.3695 48.492 97.0415 43.004C97.2655 41.184 98.2735 39.532 101.325 39.532Z" fill="#0E0E0E"/>
</svg>
